<svg width="30" height="30" viewBox="0 0 30 30" fill="none" xmlns="http://www.w3.org/2000/svg">
<g clip-path="url(#clip0_32_33)">
<rect width="30" height="30" rx="15" fill="white"/>
<path fill-rule="evenodd" clip-rule="evenodd" d="M100 0H0V100H100V0ZM6.6 15.2984C6.6 10.6583 10.3766 6.9 15.0394 6.9C19.7022 6.9 23.4788 10.6583 23.4788 15.2984C23.4788 19.0042 21.063 22.1535 17.7295 23.2663C17.3075 23.3503 17.1493 23.0879 17.1493 22.8674C17.1493 22.7726 17.1504 22.6086 17.152 22.3903C17.1551 21.9556 17.1598 21.3055 17.1598 20.5579C17.1598 19.7705 16.8961 19.2666 16.5901 19.0042C18.4679 18.7942 20.4406 18.0803 20.4406 14.8575C20.4406 13.9336 20.1136 13.1883 19.5756 12.6004C19.66 12.3904 19.9554 11.5296 19.4912 10.3748C19.4912 10.3748 18.7844 10.1439 17.1704 11.2357C16.4952 11.0467 15.7779 10.9522 15.0605 10.9522C14.3432 10.9522 13.6258 11.0467 12.9507 11.2357C11.3366 10.1544 10.6298 10.3748 10.6298 10.3748C10.1656 11.5296 10.461 12.3904 10.5454 12.6004C10.0074 13.1883 9.68038 13.9441 9.68038 14.8575C9.68038 18.0698 11.6425 18.7942 13.5203 19.0042C13.2777 19.2141 13.0561 19.5815 12.9823 20.1274C12.497 20.3479 11.2839 20.7048 10.5243 19.4346C10.3661 19.1826 9.89137 18.5632 9.22677 18.5737C8.51997 18.5842 8.94194 18.9727 9.23731 19.1301C9.59599 19.3296 10.0074 20.0749 10.1024 20.3164C10.2711 20.7888 10.8197 21.6916 12.9401 21.3032C12.9401 21.7622 12.9446 22.2032 12.9477 22.5098C12.9494 22.673 12.9507 22.7981 12.9507 22.8674C12.9507 23.0879 12.7924 23.3398 12.3704 23.2663C9.01578 22.1535 6.6 19.0147 6.6 15.2984Z" fill="#1B1F23"/>
</g>
<defs>
<clipPath id="clip0_32_33">
<rect width="30" height="30" rx="15" fill="white"/>
</clipPath>
</defs>
</svg>
