<svg width="30" height="30" viewBox="0 0 30 30" fill="none" xmlns="http://www.w3.org/2000/svg">
<g clip-path="url(#clip0_32_28)">
<rect width="30" height="30" rx="15" fill="white"/>
<path fill-rule="evenodd" clip-rule="evenodd" d="M100 0H0V100H100V0ZM23.0436 10.8736C22.8478 10.1373 22.2683 9.55636 21.5311 9.35727C20.1982 9 14.85 9 14.85 9C14.85 9 9.50455 9 8.16887 9.35727C7.43438 9.55364 6.85495 10.1345 6.65636 10.8736C6.3 12.21 6.3 15 6.3 15C6.3 15 6.3 17.79 6.65636 19.1264C6.85223 19.8627 7.43166 20.4436 8.16887 20.6427C9.50455 21 14.85 21 14.85 21C14.85 21 20.1982 21 21.5311 20.6427C22.2656 20.4464 22.8451 19.8655 23.0436 19.1264C23.4 17.79 23.4 15 23.4 15C23.4 15 23.4 12.21 23.0436 10.8736ZM13.1416 17.5718L17.5839 15L13.1416 12.4282V17.5718Z" fill="#FF3000"/>
</g>
<defs>
<clipPath id="clip0_32_28">
<rect width="30" height="30" rx="15" fill="white"/>
</clipPath>
</defs>
</svg>
